<?xml version="1.0" encoding="UTF-8" standalone="no"?>
<!-- Created with Inkscape (http://www.inkscape.org/) -->

<svg
   width="210mm"
   height="297mm"
   viewBox="0 0 210 297"
   version="1.1"
   id="svg1"
   xml:space="preserve"
   inkscape:version="1.3 (0e150ed6c4, 2023-07-21)"
   sodipodi:docname="poke3.svg"
   xmlns:inkscape="http://www.inkscape.org/namespaces/inkscape"
   xmlns:sodipodi="http://sodipodi.sourceforge.net/DTD/sodipodi-0.dtd"
   xmlns="http://www.w3.org/2000/svg"
   xmlns:svg="http://www.w3.org/2000/svg"><sodipodi:namedview
     id="namedview1"
     pagecolor="#ffffff"
     bordercolor="#666666"
     borderopacity="1.0"
     inkscape:showpageshadow="2"
     inkscape:pageopacity="0.0"
     inkscape:pagecheckerboard="0"
     inkscape:deskcolor="#d1d1d1"
     inkscape:document-units="mm"
     inkscape:zoom="1.0041055"
     inkscape:cx="242.00644"
     inkscape:cy="762.37008"
     inkscape:window-width="1920"
     inkscape:window-height="1017"
     inkscape:window-x="-8"
     inkscape:window-y="-8"
     inkscape:window-maximized="1"
     inkscape:current-layer="layer1" /><defs
     id="defs1" /><g
     inkscape:label="Ebene 1"
     inkscape:groupmode="layer"
     id="layer1"><path
       style="fill:#000000"
       d="m 91.095961,230.54878 c -1.38336,-0.46664 -2.53615,-1.86805 -4.17109,-5.07067 -1.93127,-3.78309 -2.58605,-4.81112 -3.406867,-5.34895 -0.624826,-0.4094 -0.766984,-0.40637 -2.183718,0.0464 -1.963511,0.62757 -5.661518,0.63019 -7.974651,0.006 -2.430714,-0.65629 -5.621962,-2.30574 -8.619696,-4.45521 -1.922784,-1.3787 -2.701064,-1.79966 -2.990129,-1.61732 -0.214929,0.13557 -0.386489,0.3017 -0.381247,0.36918 0.0052,0.0675 0.09568,0.69718 0.20098,1.39935 0.242979,1.62029 -0.05157,1.96176 -1.186124,1.37506 -0.99524,-0.51466 -1.520855,-0.23705 -1.649335,0.8711 -0.11299,0.97455 -0.893463,1.05143 -1.805303,0.17783 -0.701152,-0.67174 -0.803833,-0.69445 -1.741234,-0.38508 -0.928623,0.30647 -1.03151,0.28595 -1.517894,-0.30279 -0.286963,-0.34734 -0.923267,-1.49317 -1.414009,-2.54628 -0.665996,-1.4292 -1.106742,-2.02566 -1.738065,-2.35213 -0.465193,-0.24056 -1.519667,-1.08014 -2.343274,-1.86573 -4.062516,-3.87498 -4.460792,-10.38531 -0.976376,-15.96011 0.981136,-1.56974 1.066025,-1.84675 0.972946,-3.175 -0.05609,-0.80036 -0.08869,-3.65786 -0.07245,-6.35 0.0277,-4.59274 0.07924,-5.07438 0.835269,-7.8052 0.44316,-1.60073 1.017439,-3.45703 1.276174,-4.1251 l 0.470427,-1.21469 -1.597418,-2.75406 c -0.87858,-1.51474 -2.406443,-4.27014 -3.395251,-6.1231 l -1.797833,-3.36904 -1.482321,-0.54266 c -0.815276,-0.29847 -1.631149,-0.59437 -1.81305,-0.65756 -0.571007,-0.19837 -0.362251,-0.99983 0.489256,-1.87836 1.022384,-1.05483 0.913286,-1.49858 -0.846067,-3.44131 -0.713259,-0.78761 -1.296835,-1.53708 -1.296835,-1.66549 0,-0.38263 0.743759,-0.55467 2.397849,-0.55467 1.428108,0 1.57441,-0.0541 1.72065,-0.63682 0.08791,-0.35025 0.03064,-0.8782 -0.127251,-1.17323 -0.401537,-0.75028 -0.357615,-1.61908 0.09055,-1.79105 0.389328,-0.1494 2.741572,1.09994 10.731622,5.69984 2.544827,1.46506 4.77725,2.66375 4.960938,2.66375 0.468458,0 0.439072,-4.74538 -0.07009,-11.31935 -0.454433,-5.86746 -0.896644,-16.15631 -0.716068,-16.66066 0.06513,-0.1819 0.254503,-0.33007 0.420834,-0.32925 0.757014,0.004 5.610682,4.28168 13.729063,12.10071 2.453819,2.36334 4.878196,4.61482 5.387504,5.00328 0.87052,0.66398 0.952901,0.67943 1.374685,0.25781 0.284439,-0.28434 0.497097,-1.04281 0.580964,-2.07209 0.07968,-0.97794 0.2661,-1.66769 0.468776,-1.73448 0.185067,-0.061 1.265178,0.79286 2.400248,1.89745 2.270781,2.20981 3.044591,2.49465 3.502821,1.28941 0.66128,-1.73929 1.28249,-1.67435 2.25014,0.23521 0.36297,0.71629 0.84626,1.37383 1.07398,1.46121 0.22772,0.0874 1.3242,-0.16887 2.43664,-0.56946 6.911516,-2.48886 12.970589,-4.37678 14.046809,-4.37678 0.87619,0 0.66003,0.78279 -0.91944,3.32962 -2.34422,3.77996 -2.68658,4.54441 -2.2291,4.97731 0.32699,0.30942 0.81935,0.29032 3.27978,-0.12727 4.30533,-0.7307 4.94251,-0.3618 3.18782,1.8456 -0.50791,0.63894 -0.92348,1.24944 -0.92348,1.35666 0,0.68801 1.29391,0.75437 15.74762,0.80774 8.29198,0.0306 15.22516,0.11117 15.40706,0.17901 0.1819,0.0679 0.33073,0.27031 0.33073,0.44991 0,0.1796 -4.01045,3.82803 -8.91212,8.10763 -15.64323,13.65793 -16.19985,14.18417 -15.47608,14.63148 0.11992,0.0741 2.11422,0.32006 4.43177,0.54654 2.31755,0.22647 5.99966,0.65299 8.18247,0.94781 7.24339,0.97834 7.9241,1.21624 6.85624,2.39622 -0.62022,0.68532 -0.3253,1.19132 1.22165,2.09605 0.62821,0.36741 1.18863,0.80732 1.24538,0.97758 0.12766,0.38298 -1.05763,1.00424 -2.36867,1.24154 -1.2086,0.21875 -1.35767,0.44062 -1.52785,2.27407 -0.11957,1.28809 -0.20791,1.4655 -0.76928,1.54485 -0.34881,0.0493 -1.12272,-0.0466 -1.71979,-0.21305 -0.99477,-0.27737 -1.27375,-0.22672 -3.33455,0.60543 -1.23693,0.49946 -4.21349,1.80328 -6.61459,2.89736 -4.39347,2.00193 -6.51243,2.90393 -8.75832,3.72823 -1.15919,0.42546 -1.25329,0.53877 -1.95828,2.3582 -1.15963,2.99272 -2.32223,5.16371 -4.06979,7.59981 -0.88732,1.23693 -1.61258,2.36802 -1.61169,2.51354 9e-4,0.14552 0.19484,0.80037 0.43099,1.45521 0.62599,1.7359 0.61395,8.02456 -0.0195,10.17516 -1.23761,4.20185 -3.73813,7.36887 -7.664783,9.70782 -1.501046,0.8941 -2.108906,1.10154 -3.439596,1.17378 -0.88898,0.0483 -2.01852,-0.0479 -2.5101,-0.21375 z m -0.82672,-5.3624 c 0.18506,-0.66098 0.67896,-1.74182 1.09756,-2.40187 0.7536,-1.18831 1.28439,-1.34352 1.28439,-0.37557 0,0.58256 0.53596,1.84891 0.78252,1.84891 0.0926,0 0.63346,-0.47625 1.20185,-1.05833 1.381266,-1.41453 1.929376,-1.39733 2.035316,0.0639 0.10515,1.4503 0.70388,1.59154 2.0752,0.48952 0.55981,-0.44988 1.07866,-0.81796 1.15299,-0.81796 0.0743,0 -0.0365,0.56554 -0.2462,1.25677 -0.541,1.78288 -0.45885,1.97089 0.25921,0.59322 1.308243,-2.51002 0.713493,-3.39981 -1.22906,-1.83874 -1.17866,0.9472 -1.51889,0.79799 -1.53391,-0.67271 -0.0164,-1.60964 -0.36529,-1.65949 -1.977056,-0.28252 -0.81841,0.69919 -1.52499,1.22739 -1.57018,1.17376 -0.0452,-0.0536 -0.24781,-0.63225 -0.45027,-1.28584 -0.21772,-0.70284 -0.54902,-1.22264 -0.8109,-1.27227 -0.71944,-0.13637 -2.18785,2.66316 -2.73051,5.2057 -0.28231,1.32274 0.25682,0.8107 0.65905,-0.62593 z m 13.093969,-3.17748 c 1.0157,-2.24466 1.25398,-3.93747 1.15451,-8.20209 -0.0797,-3.41826 -0.16771,-4.09666 -0.63431,-4.89091 -0.51664,-0.87946 -2.5475,-2.64971 -3.03978,-2.64971 -0.12819,0 0.11984,0.56774 0.5512,1.26164 1.27362,2.04884 1.64998,4.48345 1.50235,9.71857 -0.0936,3.31991 -0.23929,4.76623 -0.55621,5.52241 -0.95672,2.28279 -0.0494,1.60829 1.02224,-0.75991 z m -22.485976,-2.74817 1.058334,-0.20414 -1.058334,-0.29115 c -0.582083,-0.16013 -2.464011,-0.66387 -4.182063,-1.11941 -1.718051,-0.45555 -4.03977,-1.1214 -5.159375,-1.47968 -2.618915,-0.83805 -8.302979,-3.64871 -11.086365,-5.48199 -1.536673,-1.01213 -2.020913,-1.23879 -1.656303,-0.77526 1.65787,2.10764 7.089948,6.10589 10.707022,7.88084 2.860504,1.4037 8.167781,2.0898 11.377084,1.47079 z m -22.340159,-1.83252 c 0.08218,-0.60391 0.230529,-1.17913 0.329654,-1.27826 0.09913,-0.0991 0.62313,0.13491 1.164454,0.52006 0.541325,0.38516 1.08379,0.60073 1.205479,0.47904 0.325114,-0.32511 -0.358842,-3.69147 -0.783088,-3.85426 -0.38974,-0.14956 -2.700242,0.54469 -3.111029,0.93479 -0.348901,0.33132 0.965531,0.30614 1.864714,-0.0357 0.869278,-0.3305 1.045084,-0.16936 1.285143,1.17796 l 0.184561,1.03584 -0.672327,-0.44053 c -0.36978,-0.24229 -0.850921,-0.44053 -1.069202,-0.44053 -0.495777,0 -0.94466,0.80895 -0.94466,1.7024 0,0.9177 -0.191303,0.85972 -1.252007,-0.37948 -1.033472,-1.20738 -1.418861,-1.29333 -2.172394,-0.48451 l -0.534598,0.57382 -0.570332,-1.28933 c -0.385482,-0.87144 -0.472816,-1.32183 -0.269459,-1.38962 0.586123,-0.19537 0.289388,-0.80218 -0.532359,-1.08864 -0.458278,-0.15976 -0.866656,-0.29047 -0.907507,-0.29047 -0.04085,0 0.22113,0.74414 0.582179,1.65365 0.361049,0.9095 1.030253,1.99967 1.487119,2.42259 0.826688,0.76527 0.831886,0.76622 1.085236,0.19844 0.140013,-0.31378 0.34143,-0.57051 0.447593,-0.57051 0.106163,0 0.680217,0.48719 1.275675,1.08265 0.595459,0.59546 1.234544,1.03225 1.420191,0.97065 0.185646,-0.0616 0.40478,-0.60611 0.486964,-1.21003 z m 26.869556,-13.95124 c 2.8266,-0.49076 4.25362,-0.896 4.59232,-1.30411 0.13855,-0.16694 0.47359,-1.73845 0.74453,-3.49226 l 0.49263,-3.18873 -3.98882,-0.14327 c -2.19385,-0.0788 -4.036292,-0.0975 -4.09433,-0.0415 -0.126521,0.122 -1.864011,7.77347 -1.87275,8.24713 -0.0082,0.44542 1.251921,0.42183 4.12642,-0.0772 z m -4.262894,-2.82403 c 0.390246,-1.63207 0.771989,-3.5725 0.848318,-4.31207 l 0.138781,-1.34465 -2.875759,-0.71584 c -1.581668,-0.39372 -3.980911,-1.11922 -5.331651,-1.61223 l -2.455892,-0.89639 -0.403972,0.96336 c -0.666355,1.58906 -2.04646,7.10404 -1.883824,7.52786 0.306474,0.79866 8.043035,3.31427 10.285354,3.34437 l 0.969107,0.013 z m 13.178524,-1.5038 c 1.13236,-1.08183 3.620606,-4.63519 3.620606,-5.17045 0,-0.11249 -0.20836,-0.12244 -0.46303,-0.0221 -0.25466,0.10033 -1.53151,0.41758 -2.837456,0.70499 -1.30594,0.28741 -2.40734,0.55547 -2.44755,0.59569 -0.0968,0.0968 -1.12196,5.74637 -1.12712,6.21167 -0.005,0.44363 1.44028,-0.58649 3.25455,-2.3198 z m 14.459079,-3.77968 c 0.56794,-0.85049 1.30384,-2.22923 1.63535,-3.06387 1.13285,-2.85219 0.71836,-9.93018 -0.75223,-12.84534 -0.60317,-1.19567 -1.01556,-0.73978 -0.93411,1.03266 0.21865,4.75768 0.14416,9.37584 -0.1746,10.82432 -0.51329,2.33248 -1.75276,5.40057 -2.95487,7.31426 l -1.05631,1.68157 1.60208,-1.69863 c 0.88115,-0.93425 2.06676,-2.39448 2.63469,-3.24497 z m -40.32053,3.81912 c 0.08875,-0.40018 0.622586,-2.27541 1.186298,-4.16718 0.95499,-3.20487 0.993974,-3.46305 0.571278,-3.78342 -1.178668,-0.89332 -5.630783,-3.75721 -5.840857,-3.75721 -0.258499,0 -2.004286,5.07932 -2.295977,6.68009 -0.172185,0.94493 -0.115477,1.05066 1.206223,2.24896 1.474026,1.3364 4.444055,3.50637 4.799151,3.50637 0.116884,0 0.285132,-0.32742 0.373884,-0.72761 z m -17.534597,-1.12483 c -0.663729,-2.37494 -0.807631,-15.72065 -0.214756,-19.91689 0.491162,-3.47634 1.382592,-6.67137 2.451394,-8.7862 0.408848,-0.80898 0.511699,-1.19047 0.265971,-0.98654 -0.543325,0.45092 -2.944457,5.3533 -3.627073,7.40537 -2.211398,6.6479 -1.989647,13.75516 0.681371,21.83837 0.777001,2.35141 1.053357,2.62951 0.443093,0.44589 z m 12.069881,-9.61273 c 0.303012,-0.70329 0.55093,-1.42173 0.55093,-1.59654 0,-0.1748 -0.663956,-0.9686 -1.475458,-1.764 -0.811502,-0.79539 -1.780876,-1.96167 -2.154165,-2.59173 -0.845318,-1.42678 -1.036914,-1.17583 -1.26635,1.65866 -0.278072,3.43538 0.512832,6.85296 2.175061,9.39868 0.421078,0.64488 0.431236,0.6291 1.022178,-1.5875 0.328281,-1.23138 0.844793,-2.81428 1.147804,-3.51757 z m 32.276867,4.08473 c 1.995666,-0.62112 4.014246,-1.89344 5.019549,-3.16383 2.03142,-2.56713 3.4583,-6.28526 3.46722,-9.0349 0.005,-1.64626 -0.71902,-5.27654 -1.19903,-6.00912 -0.77921,-1.18923 -2.10377,-0.68581 -9.321429,3.54268 -6.94248,4.06728 -12.122765,7.73181 -12.398506,8.77068 -0.240893,0.90758 0.306395,1.70415 1.983392,2.8868 4.512734,3.18247 8.664394,4.18553 12.448804,3.00769 z m -6.00369,-1.20505 c -2.1854,-0.52916 -7.201412,-3.41562 -7.201412,-4.14404 0,-0.71072 8.775192,-6.53667 15.610418,-10.36393 3.012303,-1.68669 3.597443,-1.93076 3.735103,-1.55796 0.0898,0.24312 0.29599,1.57518 0.45824,2.96013 0.7864,6.71256 -2.124973,11.61212 -7.774469,13.08362 -1.83413,0.47773 -2.92581,0.48275 -4.82788,0.0222 z m 5.89546,-2.22394 c 1.663416,-0.79094 3.694836,-2.71882 4.494716,-4.26563 0.618453,-1.19594 0.946303,-3.75543 0.752893,-5.87774 l -0.16134,-1.77051 -2.146263,1.07159 c -1.18044,0.58937 -3.230006,1.71462 -4.554576,2.50054 l -2.40833,1.42895 0.12647,1.31619 c 0.23337,2.42866 -1.4174,3.60882 -2.32128,1.65952 -0.4639,-1.00045 -0.58061,-0.97714 -2.54902,0.50902 l -1.48926,1.1244 1.18124,1.06644 c 1.5654,1.41328 3.05991,1.94907 5.50287,1.9728 1.65944,0.0161 2.24433,-0.10433 3.57188,-0.73557 z m -19.416555,-2.75383 c 0.619869,-0.26102 1.014301,-0.63358 1.121038,-1.05885 0.11501,-0.45824 -0.834549,-3.63411 -3.148212,-10.52944 -1.82209,-5.43032 -3.442464,-10.02944 -3.600831,-10.22026 -0.821576,-0.98994 -3.155379,0.15735 -5.461117,2.68467 -2.525157,2.76782 -3.344204,5.15053 -3.176088,9.23965 0.09738,2.36865 0.207062,2.86666 0.950301,4.31492 1.469557,2.86356 4.256228,5.21368 7.035842,5.93364 1.242765,0.3219 5.193882,0.0926 6.279067,-0.36433 z m -6.248026,-1.09435 c -2.401338,-0.75944 -3.909336,-2.05478 -5.520655,-4.74211 -2.143873,-3.57551 -1.341268,-8.94701 1.845991,-12.35445 1.159683,-1.2398 3.201321,-2.82001 3.378361,-2.61483 0.22327,0.25877 6.491718,19.39824 6.387371,19.50258 -0.232237,0.23224 -2.415497,0.55574 -3.709818,0.54969 -0.727604,-0.003 -1.799167,-0.15679 -2.38125,-0.34088 z m 3.744066,-1.37729 0.569065,-0.15268 -0.672743,-2.02652 c -0.784651,-2.36363 -0.776559,-2.35036 -1.184173,-1.94274 -0.172199,0.1722 -0.586934,0.31309 -0.921632,0.31309 -0.514442,0 -0.608541,-0.13768 -0.608541,-0.89036 0,-0.4897 0.231329,-1.18445 0.514065,-1.54389 l 0.514065,-0.65353 -1.432693,-4.07851 c -0.787982,-2.24318 -1.43603,-4.22733 -1.440107,-4.40923 -0.01193,-0.5321 -0.371075,-0.39087 -1.531163,0.60212 -2.965176,2.53808 -3.553641,7.86029 -1.269214,11.47906 0.746437,1.18243 2.331579,2.60782 3.433858,3.08779 0.841427,0.36639 3.030273,0.4834 4.029213,0.2154 z m 43.219464,-1.21014 c 1.89131,-0.38168 13.10934,-0.47453 15.55954,-0.12877 1.36034,0.19196 1.39522,0.18114 1.11346,-0.34534 -0.24541,-0.45855 -0.17542,-0.64354 0.44775,-1.18336 0.49535,-0.42911 0.65148,-0.72852 0.47404,-0.90906 -0.53866,-0.54808 -9.79732,-1.87853 -15.875,-2.2812 -3.45572,-0.22896 -4.05041,-0.3526 -4.17753,-0.8685 -0.0616,-0.2499 -0.10866,0.67674 -0.10463,2.05918 0.004,1.38245 -0.0856,2.91667 -0.19928,3.40938 -0.19522,0.84649 -0.17221,0.88754 0.41763,0.74529 0.34333,-0.0828 1.39813,-0.30673 2.34402,-0.49762 z m -2.73519,-7.16278 c -0.0734,-0.1819 -0.13345,-0.0331 -0.13345,0.33073 0,0.36381 0.06,0.51263 0.13345,0.33073 0.0734,-0.1819 0.0734,-0.47955 0,-0.66146 z m 3.91007,-2.45372 2.57455,-2.25529 -1.80857,-0.82101 c -9.6073,-4.36128 -24.124359,-9.24589 -39.913799,-13.42993 -5.121208,-1.35707 -18.188513,-4.52181 -18.670665,-4.52181 -0.15928,0 -0.233975,0.74672 -0.187247,1.87191 l 0.07774,1.87191 1.24263,0.53695 1.24263,0.53694 1.992937,-1.24214 c 1.096115,-0.68318 2.110358,-1.20162 2.253874,-1.15209 0.143516,0.0495 -0.567076,0.62584 -1.579092,1.28068 -1.012017,0.65484 -1.841303,1.2553 -1.842859,1.33434 -0.0016,0.079 1.634281,0.81508 3.635193,1.63564 2.000911,0.82055 5.423959,2.22803 7.606771,3.12772 11.394488,4.69648 20.628448,8.01944 29.104167,10.47351 4.45177,1.28897 9.06135,2.47879 9.60329,2.47879 0.10456,0 0.14628,-0.55096 0.0927,-1.22436 -0.12548,-1.57772 0.39062,-1.34178 0.63539,0.29047 0.16065,1.07128 0.32194,1.26289 1.20574,1.43236 0.088,0.0169 1.31861,-0.98418 2.73461,-2.22459 z m -28.691539,-5.98706 c -0.50932,-0.13759 -1.42759,-0.6313 -2.04059,-1.09714 -4.838741,-3.67707 -6.955238,-5.36519 -6.955238,-5.54749 0,-0.11721 1.160859,-0.19274 2.579687,-0.16785 1.418831,0.0249 3.032481,-0.0442 3.585911,-0.15346 1.25008,-0.24688 2.90018,0.33662 4.58168,1.62013 0.65376,0.49903 1.5094,0.95756 1.90142,1.01895 0.39201,0.0614 1.15924,0.18155 1.70494,0.26699 0.54571,0.0854 0.99219,0.27851 0.99219,0.42901 0,0.17944 -0.6149,0.21098 -1.78594,0.0916 -1.52365,-0.15531 -1.92193,-0.30955 -2.71198,-1.05024 -1.25906,-1.18042 -2.5657,-1.79897 -3.86183,-1.82815 -1.32234,-0.0298 -1.959,0.45003 -1.959,1.47635 0,2.03476 2.62198,4.45238 4.82874,4.45238 1.11699,0 1.52126,-0.40078 1.52126,-1.50813 0,-0.66445 -0.2505,-1.12362 -1.04812,-1.92125 -2.15208,-2.15208 -4.88673,-1.79071 -3.7777,0.4992 0.78736,1.62572 2.84338,2.39287 3.583,1.3369 0.30831,-0.44017 0.42736,-0.47148 0.67198,-0.17673 0.46982,0.5661 -0.24485,1.32827 -1.2195,1.30056 -1.10826,-0.0315 -2.20233,-0.6418 -3.21191,-1.79165 -0.67893,-0.77326 -0.83144,-1.15647 -0.76688,-1.92693 0.0647,-0.77161 0.22162,-1.011 0.79407,-1.21108 1.15168,-0.40252 2.81091,0.25184 4.22806,1.66745 1.79515,1.79318 2.05004,3.5587 0.6086,4.21546 -0.77256,0.35201 -0.9571,0.35243 -2.24285,0.005 z m -4.71715,-4.98682 -0.10093,-1.05833 h -1.215747 c -1.326517,0 -1.313967,0.0473 0.345291,1.30179 0.582086,0.44008 1.061476,0.80346 1.065316,0.80751 0.004,0.004 -0.0384,-0.46889 -0.0939,-1.05097 z m 32.748629,0.7985 c 3.98035,-1.31693 21.39018,-8.07095 21.78854,-8.45272 0.40897,-0.39193 -5.12373,-0.54478 -18.59919,-0.51384 -9.36642,0.0215 -13.09971,0.1066 -11.94237,0.27221 0.92602,0.13251 2.10995,0.41903 2.63095,0.63672 l 0.94729,0.39581 -0.84045,0.58739 c -0.46224,0.32306 -0.84249,0.64828 -0.84501,0.72271 -0.003,0.0744 1.03709,0.49115 2.31025,0.92604 1.50662,0.51464 2.34264,0.94119 2.39447,1.22167 0.0527,0.28532 -0.51428,0.80605 -1.67788,1.54094 -0.96665,0.61049 -1.69791,1.16961 -1.62503,1.24248 0.0729,0.0729 0.94151,-0.1102 1.9303,-0.40685 0.98879,-0.29664 1.85626,-0.48088 1.92772,-0.40943 0.0715,0.0715 -0.63388,0.90057 -1.56741,1.84248 -1.08475,1.09447 -1.53835,1.71256 -1.25681,1.71256 0.24229,0 2.23338,-0.59318 4.42463,-1.31817 z m -56.758078,-3.62119 c 0.425942,-0.53383 0.632903,-0.88312 0.459914,-0.77621 -0.205199,0.12682 -0.369488,-0.0646 -0.472645,-0.55075 -0.113749,-0.53605 -0.465538,-0.89764 -1.253664,-1.2886 -0.929598,-0.46113 -12.053026,-6.70306 -14.638361,-8.21434 -0.463549,-0.27097 -0.929624,-0.40587 -1.035723,-0.29977 -0.106099,0.1061 0.0053,0.90574 0.247503,1.77697 0.242225,0.87124 0.44041,1.6454 0.44041,1.72036 0,0.075 -1.012032,0.13628 -2.248959,0.13628 -2.563095,0 -2.857883,0.30237 -1.387889,1.42359 1.220227,0.93071 2.102257,1.22052 4.959765,1.62961 4.578398,0.65546 10.223877,2.70665 12.964584,4.71046 0.509323,0.37238 0.985573,0.68289 1.058334,0.69002 0.07276,0.007 0.480789,-0.4238 0.906731,-0.95762 z m 6.53625,-15.82131 c 0.209739,-0.20933 0.58989,0.17222 2.635042,2.64468 0.903391,1.09214 1.69258,1.93567 1.753754,1.87449 0.06117,-0.0612 -0.02953,-0.82667 -0.201565,-1.7011 -0.451112,-2.29295 -0.231589,-2.50526 0.925333,-0.89491 0.55218,0.7686 1.05025,1.35116 1.106821,1.29459 0.05657,-0.0566 -0.201032,-0.91022 -0.572453,-1.89699 -0.371421,-0.98678 -0.607432,-1.86201 -0.524471,-1.94497 0.08296,-0.083 0.502515,0.0569 0.932341,0.3108 l 0.781502,0.46164 -0.148771,-0.87242 c -0.116565,-0.68357 -0.935603,-1.64567 -3.783429,-4.44431 -2.859476,-2.81008 -8.27419,-7.50696 -11.077243,-9.60871 -0.708013,-0.53088 4.575367,13.92095 6.849922,18.73684 l 0.874742,1.85208 0.140768,-2.82255 c 0.07742,-1.5524 0.215891,-2.89752 0.307707,-2.98916 z"
       id="path1" /><circle
       style="fill:none;stroke:#000000;stroke-width:0.100448;stroke-linecap:round;stroke-linejoin:round;stroke-dasharray:none"
       id="path2"
       cx="89.211601"
       cy="175.80519"
       r="59.949776" /><circle
       style="fill:none;stroke:#000000;stroke-width:0.104633;stroke-linecap:round;stroke-linejoin:round;stroke-dasharray:none"
       id="path2-5"
       cx="89.211601"
       cy="175.80519"
       r="62.447685" /><circle
       style="fill:none;stroke:#000000;stroke-width:0.108818;stroke-linecap:round;stroke-linejoin:round;stroke-dasharray:none"
       id="path2-5-3"
       cx="89.211601"
       cy="175.80519"
       r="64.945587" /><circle
       style="fill:none;stroke:#000000;stroke-width:0.113003;stroke-linecap:round;stroke-linejoin:round;stroke-dasharray:none"
       id="path2-5-3-8"
       cx="89.211601"
       cy="175.66156"
       r="67.443497" /><ellipse
       style="fill:none;stroke:#000000;stroke-width:0;stroke-linecap:round;stroke-linejoin:round;stroke-dasharray:none"
       id="path2-5-4"
       cx="-54.099918"
       cy="148.43115"
       rx="62.552361"
       ry="0"
       transform="scale(-1,1)" /></g></svg>
